<?xml version="1.0" encoding="UTF-8"?>
<svg width="356px" height="58px" viewBox="0 0 356 58" version="1.1" xmlns="http://www.w3.org/2000/svg" xmlns:xlink="http://www.w3.org/1999/xlink">
    <!-- Generator: Sketch 51.2 (57519) - http://www.bohemiancoding.com/sketch -->
    <title>ic_crown_corr</title>
    <desc>Created with Sketch.</desc>
    <defs></defs>
    <g id="Symbols" stroke="none" stroke-width="1" fill="none" fill-rule="evenodd">
        <g id="nav" transform="translate(-14.000000, -11.000000)">
            <g id="ic_crown_corr">
                <g transform="translate(12.000000, 11.000000)">
                    <path d="M268.731501,57.3522276 C253.90759,56.7790562 240.158421,53.5571828 230.016756,48.2802756 C219.879562,43.0059536 214.296792,36.1587339 214.296792,28.9998153 C214.296792,21.8412661 219.879562,14.9940464 230.016756,9.71953976 C240.158235,4.44281721 253.907404,1.22094378 268.731501,0.647587696 C268.881681,0.641863367 269.000186,0.519436609 269,0.370604079 C268.999813,0.221771549 268.881122,0.099714102 268.730942,0.0939897739 C267.030509,0.031760788 265.319829,0 263.646786,0 C246.86885,0 231.090939,2.99677808 219.219215,8.43839821 C214.419024,10.6387561 210.487496,13.1351171 207.500093,15.8394004 C204.512504,13.1351171 200.581349,10.6387561 195.780785,8.43839821 C183.909248,2.99677808 168.13115,0 151.3534,0 C149.679985,0 147.969491,0.031760788 146.269245,0.0939897739 C146.119064,0.099714102 146.000187,0.221771549 146,0.370604079 C145.999814,0.519436609 146.118505,0.641863367 146.268686,0.647587696 C161.092596,1.22094378 174.841765,4.44281721 184.98343,9.71953976 C195.120438,14.9940464 200.703208,21.8412661 200.703208,28.9998153 C200.703208,36.1587339 195.120438,43.0059536 184.98343,48.2802756 C174.841579,53.5571828 161.09241,56.7790562 146.268686,57.3522276 C146.118505,57.357952 145.999814,57.4803787 146,57.6292113 C146.000187,57.7782285 146.119064,57.9002859 146.269245,57.9058256 C147.969491,57.9682392 149.679985,58 151.3534,58 C168.13115,58 183.909248,55.0030373 195.780785,49.5616018 C200.581349,47.3612439 204.512504,44.8646983 207.500093,42.1604149 C210.487496,44.8646983 214.419024,47.3612439 219.219215,49.5616018 C231.090939,55.0030373 246.86885,58 263.646786,58 C265.319829,58 267.030509,57.9682392 268.730942,57.9058256 C268.881122,57.9002859 268.999813,57.7782285 269,57.6292113 C269.000186,57.4803787 268.881681,57.357952 268.731501,57.3522276" id="Fill-1" fill="#54A4DA"></path>
                    <text id="CROWN-CORR" font-family="Montserrat-Regular, Montserrat" font-size="44.8" font-weight="normal" fill="#FFFFFF">
                        <tspan x="0.352" y="43">CROWN   CORR</tspan>
                    </text>
                </g>
            </g>
        </g>
    </g>
</svg>