<?xml version="1.0" encoding="UTF-8"?>
<svg width="690px" height="113px" viewBox="0 0 690 113" version="1.1" xmlns="http://www.w3.org/2000/svg" xmlns:xlink="http://www.w3.org/1999/xlink">
    <!-- Generator: Sketch 51.2 (57519) - http://www.bohemiancoding.com/sketch -->
    <title>ic_crown_corr</title>
    <desc>Created with Sketch.</desc>
    <defs>
        <path d="M142.404665,16.4071569 C133.083737,20.6856471 125.450886,25.5402157 119.649919,30.7958235 C113.851164,25.5402157 106.218313,20.6856471 96.8995977,16.4071569 C73.8528123,5.8272549 43.2196366,0 10.6483804,0 C7.39833451,0 4.07749118,0.0620392157 0.776559633,0.181686275 C0.486732534,0.194980392 0.25442837,0.429843137 0.25442837,0.720098039 C0.25442837,1.01035294 0.484520113,1.24964706 0.774347212,1.2585098 C29.5535145,2.373 56.2463691,8.6367451 75.9391249,18.8998039 C95.6141814,29.154 106.455042,42.4658431 106.455042,56.3825686 C106.455042,70.3037255 95.6141814,83.6133529 75.9391249,93.8697647 C56.2463691,104.128392 29.5535145,110.394353 0.774347212,111.508843 C0.484520113,111.519922 0.25442837,111.757 0.25442837,112.047255 C0.25442837,112.335294 0.486732534,112.572373 0.776559633,112.585667 C4.07749118,112.705314 7.39833451,112.767353 10.6483804,112.767353 C43.2196366,112.767353 73.8528123,106.942314 96.8995977,96.3601961 C106.218313,92.0839216 113.851164,87.2293529 119.649919,81.9715294 C125.450886,87.2293529 133.083737,92.0839216 142.404665,96.3601961 C165.449238,106.942314 196.080201,112.767353 228.65367,112.767353 C231.903716,112.767353 235.222347,112.705314 238.523278,112.585667 C238.81753,112.572373 239.045409,112.335294 239.047622,112.047255 C239.047622,111.757 238.81753,111.519922 238.523278,111.508843 C209.746323,110.394353 183.053469,104.128392 163.365138,93.8697647 C143.683444,83.6133529 132.844795,70.3037255 132.844795,56.3825686 C132.844795,42.4658431 143.683444,29.154 163.365138,18.8998039 C183.053469,8.6367451 209.746323,2.373 238.523278,1.2585098 C238.81753,1.24964706 239.047622,1.01035294 239.047622,0.720098039 C239.045409,0.429843137 238.81753,0.194980392 238.523278,0.181686275 C235.222347,0.0620392157 231.903716,0 228.65367,0 C196.080201,0 165.449238,5.8272549 142.404665,16.4071569 Z" id="path-1"></path>
    </defs>
    <g id="Page-1" stroke="none" stroke-width="1" fill="none" fill-rule="evenodd">
        <g id="Login" transform="translate(-358.000000, -222.000000)">
            <g id="ic_crown_corr" transform="translate(358.000000, 222.000000)">
                <g id="Group-3" transform="translate(279.000000, 0.000000)">
                    <mask id="mask-2" fill="white">
                        <use xlink:href="#path-1"></use>
                    </mask>
                    <g id="Clip-2"></g>
                    <polygon id="Fill-1" fill="#56A3D8" mask="url(#mask-2)" points="-10.8076747 123.845784 250.109725 123.845784 250.109725 -11.0784314 -10.8076747 -11.0784314"></polygon>
                </g>
                <g id="Group-22" transform="translate(0.000000, 21.000000)" fill="#FEFEFE">
                    <path d="M32.4252949,54.477978 C35.9590375,54.477978 39.0018596,53.8743292 41.55155,52.6670315 C44.1012404,51.464222 46.7681325,49.5365851 49.550015,46.890853 L56.1553274,53.773347 C49.7225005,61.0059125 41.914212,64.6233173 32.7282503,64.6233173 C23.5422886,64.6233173 15.9197537,61.6230256 9.8650683,55.6246863 C3.81038291,49.626347 0.780828857,42.039222 0.780828857,32.8633113 C0.780828857,23.6874006 3.86787809,16.0441744 10.0397652,9.9269006 C16.2116523,3.81187083 24.0044614,0.753233929 33.4226152,0.753233929 C42.840769,0.753233929 50.7087641,4.28087679 57.0266006,11.3384065 L50.507531,18.5732161 C47.6062354,15.7502042 44.86858,13.7799304 42.2923534,12.6623946 C39.7117041,11.5448589 36.6843614,10.9860911 33.2081139,10.9860911 C27.0627631,10.9860911 21.9058871,13.0012458 17.7308521,17.0293113 C13.5602397,21.0573768 11.4727222,26.202978 11.4727222,32.4661149 C11.4727222,38.7292518 13.5447602,43.9646149 17.6888363,48.1677161 C21.8329125,52.3753054 26.7443282,54.477978 32.4252949,54.477978" id="Fill-4"></path>
                    <path d="M103.534015,31.011972 C105.619321,29.1898054 106.663079,26.2635673 106.663079,22.2332577 C106.663079,18.2051923 105.590573,15.4427696 103.447772,13.9415018 C101.302759,12.442478 97.4771178,11.6929661 91.970848,11.6929661 L78.9327088,11.6929661 L78.9327088,33.7474661 L91.7099083,33.7474661 C97.5058654,33.7474661 101.448708,32.8341387 103.534015,31.011972 M117.182487,22.2758946 C117.182487,32.4548946 112.804008,38.8616506 104.055894,41.5096268 L119.96437,63.9164423 L106.924019,63.9164423 L92.4064846,43.1859304 L78.9327088,43.1859304 L78.9327088,63.9164423 L68.6742408,63.9164423 L68.6742408,2.25225774 L91.2764831,2.25225774 C100.546476,2.25225774 107.184959,3.84104345 111.183086,7.01637083 C115.183424,10.1916982 117.182487,15.2789542 117.182487,22.2758946" id="Fill-6"></path>
                    <path d="M175.297295,16.8091702 C171.153219,12.4579619 166.067106,10.2812357 160.041168,10.2812357 C154.013019,10.2812357 148.926906,12.4579619 144.78283,16.8091702 C140.638754,21.1603786 138.568927,26.4383786 138.568927,32.6431702 C138.568927,38.8479619 140.638754,44.128206 144.78283,48.4771702 C148.926906,52.8328667 154.013019,55.0051048 160.041168,55.0051048 C166.067106,55.0051048 171.153219,52.8328667 175.297295,48.4771702 C179.43916,44.128206 181.513409,38.8479619 181.513409,32.6431702 C181.513409,26.4383786 179.43916,21.1603786 175.297295,16.8091702 M182.815896,55.4023012 C176.672757,61.4904024 169.081181,64.535575 160.041168,64.535575 C150.998944,64.535575 143.405157,61.4904024 137.264229,55.4023012 C131.118878,49.316444 128.04952,41.729319 128.04952,32.6431702 C128.04952,23.5570214 131.118878,15.9698964 137.264229,9.88403929 C143.405157,3.7959381 150.998944,0.753009524 160.041168,0.753009524 C169.081181,0.753009524 176.672757,3.7959381 182.815896,9.88403929 C188.959036,15.9698964 192.030605,23.5570214 192.030605,32.6431702 C192.030605,41.729319 188.959036,49.316444 182.815896,55.4023012" id="Fill-8"></path>
                    <polygon id="Fill-10" points="223.413689 46.6260554 236.975919 2.25225774 246.190629 2.25225774 259.752858 46.6260554 275.053212 2.25225774 286.092288 2.25225774 264.880987 63.9164423 254.708762 63.9164423 241.931562 21.6610256 241.237197 21.6610256 228.455575 63.9164423 218.285561 63.9164423 197.07426 2.25225774 208.113336 2.25225774"></polygon>
                    <polygon id="Fill-12" points="341.12071 2.25136012 351.379178 2.25136012 351.379178 63.9155446 340.249436 63.9155446 305.825299 18.926878 305.825299 63.9155446 295.566831 63.9155446 295.566831 2.25136012 305.825299 2.25136012 341.12071 48.3014613"></polygon>
                    <path d="M467.429231,54.477978 C470.965185,54.477978 474.008007,53.8743292 476.557697,52.6670315 C479.105176,51.464222 481.772068,49.5365851 484.553951,46.890853 L491.161475,53.773347 C484.728648,61.0059125 476.918148,64.6233173 467.734398,64.6233173 C458.546225,64.6233173 450.925901,61.6230256 444.871216,55.6246863 C438.814319,49.626347 435.784765,42.039222 435.784765,32.8633113 C435.784765,23.6874006 438.871814,16.0441744 445.043701,9.9269006 C451.215588,3.81187083 459.010609,0.753233929 468.428763,0.753233929 C477.846916,0.753233929 485.714911,4.28087679 492.030537,11.3384065 L485.511467,18.5732161 C482.612383,15.7502042 479.874727,13.7799304 477.296289,12.6623946 C474.717851,11.5448589 471.690509,10.9860911 468.21205,10.9860911 C462.066699,10.9860911 456.909823,13.0012458 452.736999,17.0293113 C448.566387,21.0573768 446.476658,26.202978 446.476658,32.4661149 C446.476658,38.7292518 448.550908,43.9646149 452.694984,48.1677161 C456.836848,52.3753054 461.750475,54.477978 467.429231,54.477978" id="Fill-14"></path>
                    <path d="M545.798266,16.8091702 C541.65419,12.4579619 536.568077,10.2812357 530.54435,10.2812357 C524.51399,10.2812357 519.427877,12.4579619 515.286013,16.8091702 C511.141936,21.1603786 509.069898,26.4383786 509.069898,32.6431702 C509.069898,38.8479619 511.141936,44.128206 515.286013,48.4771702 C519.427877,52.8328667 524.51399,55.0051048 530.54435,55.0051048 C536.568077,55.0051048 541.65419,52.8328667 545.798266,48.4771702 C549.942342,44.128206 552.016591,38.8479619 552.016591,32.6431702 C552.016591,26.4383786 549.942342,21.1603786 545.798266,16.8091702 M553.316867,55.4023012 C547.175939,61.4904024 539.582152,64.535575 530.54435,64.535575 C521.502127,64.535575 513.908339,61.4904024 507.767411,55.4023012 C501.62206,49.316444 498.552702,41.729319 498.552702,32.6431702 C498.552702,23.5570214 501.62206,15.9698964 507.767411,9.88403929 C513.908339,3.7959381 521.502127,0.753009524 530.54435,0.753009524 C539.582152,0.753009524 547.175939,3.7959381 553.316867,9.88403929 C559.462218,15.9698964 562.533788,23.5570214 562.533788,32.6431702 C562.533788,41.729319 559.462218,49.316444 553.316867,55.4023012" id="Fill-16"></path>
                    <path d="M610.346563,31.011972 C612.43187,29.1898054 613.475628,26.2635673 613.475628,22.2332577 C613.475628,18.2051923 612.403122,15.4427696 610.260321,13.9415018 C608.115308,12.442478 604.289667,11.6929661 598.783397,11.6929661 L585.745258,11.6929661 L585.745258,33.7474661 L598.522457,33.7474661 C604.318414,33.7474661 608.261257,32.8341387 610.346563,31.011972 M623.995036,22.2758946 C623.995036,32.4548946 619.616557,38.8616506 610.868443,41.5096268 L626.776919,63.9164423 L613.736568,63.9164423 L599.219034,43.1859304 L585.745258,43.1859304 L585.745258,63.9164423 L575.48679,63.9164423 L575.48679,2.25225774 L598.089032,2.25225774 C607.359025,2.25225774 613.997508,3.84104345 617.995635,7.01637083 C621.995973,10.1916982 623.995036,15.2789542 623.995036,22.2758946" id="Fill-18"></path>
                    <path d="M673.631294,31.011972 C675.718811,29.1898054 676.76257,26.2635673 676.76257,22.2332577 C676.76257,18.2051923 675.690064,15.4427696 673.545051,13.9415018 C671.400038,12.442478 667.576609,11.6929661 662.070339,11.6929661 L649.029988,11.6929661 L649.029988,33.7474661 L661.809399,33.7474661 C667.603145,33.7474661 671.545988,32.8341387 673.631294,31.011972 M687.281978,22.2758946 C687.281978,32.4548946 682.903498,38.8616506 674.153173,41.5096268 L690.06386,63.9164423 L677.021299,63.9164423 L662.505975,43.1859304 L649.029988,43.1859304 L649.029988,63.9164423 L638.77152,63.9164423 L638.77152,2.25225774 L661.373762,2.25225774 C670.645967,2.25225774 677.282238,3.84104345 681.282576,7.01637083 C685.282915,10.1916982 687.281978,15.2789542 687.281978,22.2758946" id="Fill-20"></path>
                </g>
            </g>
        </g>
    </g>
</svg>