<?xml version="1.0" encoding="UTF-8"?>
<svg width="693px" height="114px" viewBox="0 0 693 114" version="1.1" xmlns="http://www.w3.org/2000/svg" xmlns:xlink="http://www.w3.org/1999/xlink">
    <!-- Generator: Sketch 51.2 (57519) - http://www.bohemiancoding.com/sketch -->
    <title>ic_crown_corr_login</title>
    <desc>Created with Sketch.</desc>
    <defs></defs>
    <g id="Page-1" stroke="none" stroke-width="1" fill="none" fill-rule="evenodd">
        <g id="Login" transform="translate(-357.000000, -221.000000)">
            <g id="ic_crown_corr_login" transform="translate(353.000000, 221.000000)">
                <path d="M524.026426,111.836844 C495.119801,110.71916 468.308922,104.436506 448.532674,94.1465374 C428.765146,83.8616094 417.878745,70.5095311 417.878745,56.5496399 C417.878745,42.5904689 428.765146,29.2383906 448.532674,18.9531025 C468.308558,8.66349356 495.119437,2.38084037 524.026426,1.26279601 C524.319278,1.25163357 524.550363,1.01290139 524.55,0.722677954 C524.549636,0.432454521 524.318188,0.194442499 524.025336,0.183280059 C520.709493,0.0619335367 517.373666,0 514.111233,0 C481.394258,0 450.627331,5.84371725 427.477468,16.4548765 C418.117096,20.7455743 410.450616,25.6134783 404.625182,30.8868309 C398.799384,25.6134783 391.133631,20.7455743 381.772532,16.4548765 C358.623033,5.84371725 327.855742,0 295.13913,0 C291.875971,0 288.540507,0.0619335367 285.225027,0.183280059 C284.932175,0.194442499 284.700364,0.432454521 284.7,0.722677954 C284.699637,1.01290139 284.931085,1.25163357 285.223937,1.26279601 C314.130563,2.38084037 340.941442,8.66349356 360.717689,18.9531025 C380.484854,29.2383906 391.371255,42.5904689 391.371255,56.5496399 C391.371255,70.5095311 380.484854,83.8616094 360.717689,94.1465374 C340.941078,104.436506 314.130199,110.71916 285.223937,111.836844 C284.931085,111.848006 284.699637,112.086739 284.7,112.376962 C284.700364,112.667545 284.932175,112.905558 285.225027,112.91636 C288.540507,113.038066 291.875971,113.1 295.13913,113.1 C327.855742,113.1 358.623033,107.255923 381.772532,96.6451235 C391.133631,92.3544257 398.799384,87.4861616 404.625182,82.2128091 C410.450616,87.4861616 418.117096,92.3544257 427.477468,96.6451235 C450.627331,107.255923 481.394258,113.1 514.111233,113.1 C517.373666,113.1 520.709493,113.038066 524.025336,112.91636 C524.318188,112.905558 524.549636,112.667545 524.55,112.376962 C524.550363,112.086739 524.319278,111.848006 524.026426,111.836844" id="Fill-1" fill="#54A4DA"></path>
                <text id="CROWN-CORR" font-family="Montserrat-Regular, Montserrat" font-size="87.36" font-weight="normal" fill="#FFFFFF">
                    <tspan x="0.6864" y="85">CROWN   CORR</tspan>
                </text>
            </g>
        </g>
    </g>
</svg>